<svg xmlns="http://www.w3.org/2000/svg" width="39" height="48" viewBox="0 0 39 48" fill="none">
    <g clip-path="url(#clip0_1225_3556)">
        <path fill-rule="evenodd" clip-rule="evenodd"
            d="M1.78835 22.805V8.30112C1.78835 7.95378 2.39209 7.92562 2.7397 7.80827L6.06943 6.7287C8.89603 5.74769 12.1709 4.83709 14.9929 3.86077L19.4981 2.44793C19.7862 2.44324 23.3767 3.64955 23.9347 3.842C25.4623 4.36301 26.9305 4.77137 28.4307 5.28769L35.1176 7.41869C35.7488 7.62991 37.2078 7.97725 37.2078 8.30112V22.805C37.2078 28.4751 35.6985 33.0375 32.5974 37.2573C31.6141 38.595 29.6153 40.665 28.2112 41.6601C27.676 42.0356 27.2827 42.3501 26.7155 42.6974C25.1467 43.6503 21.2681 45.57 19.4981 45.57C17.8332 45.57 13.7671 43.6033 12.3355 42.7303C10.2682 41.4676 8.54842 39.8013 6.95217 37.9754L5.9002 36.5767C3.15592 32.5916 1.78378 28.0715 1.78378 22.8097L1.78835 22.805ZM0 7.29195V24.1803C0 27.5082 0.933054 31.0333 2.2686 33.8777C3.77795 37.0977 5.85446 40.083 8.62618 42.3172C10.7255 44.0117 12.6786 45.3494 15.2856 46.3163C16.0723 46.6074 18.6291 47.4992 19.4112 47.4992C20.4357 47.4992 22.7592 46.7153 23.5916 46.3727C26.5646 45.1429 29.3775 43.4672 31.6461 41.1438C32.7758 39.9844 33.1509 39.6652 34.148 38.2946C36.1833 35.4971 37.5966 32.5447 38.397 29.0666C38.6943 27.7664 39.0053 25.8842 39.0053 24.2742V7.29195C39.0053 6.52217 37.9671 6.36258 37.0066 6.0387C36.1238 5.74299 35.3554 5.54116 34.4773 5.23606C31.4357 4.17995 27.612 3.05344 24.5247 2.04896C23.9621 1.8659 20.0058 0.5 19.5072 0.5C19.0499 0.5 17.5588 1.07734 17.0008 1.23224C16.5663 1.35427 16.2278 1.48101 15.7842 1.6359L9.50892 3.64016C7.34094 4.25505 4.33596 5.39096 2.08565 6.02462C1.21206 6.2734 0.00914759 6.52686 0.00914759 7.29195H0Z"
            fill="#555555"></path>
        <path fill-rule="evenodd" clip-rule="evenodd"
            d="M5.00781 10.9625V24.1803C5.00781 30.2588 8.73088 36.6424 13.8124 39.8389C14.7226 40.4115 15.4681 40.8011 16.4606 41.2517C17.0232 41.5052 18.9579 42.2656 19.4976 42.2656C20.5953 42.2656 24.1263 40.5758 25.2423 39.806C26.5001 38.9377 26.6556 39.0738 26.6556 38.0412C26.6556 37.9989 26.2897 36.8067 25.0456 37.6703C23.6918 38.6138 23.1841 38.9142 21.5832 39.6277L19.5022 40.3364C19.2186 40.3364 17.1558 39.5432 16.7899 39.3601C13.6065 37.7877 10.7708 35.3422 9.06934 32.1363L7.90303 29.5735C7.23525 27.8697 6.80531 25.443 6.80531 23.082V12.0656C6.80531 11.7558 7.63775 11.5915 8.23691 11.4225L19.4198 7.84114C19.9138 7.84114 20.6365 8.16032 21.039 8.28705L31.5267 11.6619C31.8606 11.7699 32.2082 11.737 32.2082 12.0656V22.8989C32.2082 25.0581 31.9246 27.0435 31.394 28.6723C31.1013 29.5641 30.8863 30.2119 30.4793 31.038C30.3146 31.3666 30.0265 31.8125 30.1088 32.2067C30.2963 33.0986 31.4215 33.3614 31.8834 32.3851C33.0863 29.8504 33.9965 27.2078 33.9965 24.1803V10.9625C33.9965 10.3617 32.9491 10.1129 32.5283 9.99091L26.0473 7.92094C25.1965 7.644 19.8086 5.86035 19.5067 5.86035C19.2735 5.86035 18.0157 6.28279 17.6635 6.40483C14.6311 7.45625 11.4477 8.33869 8.40614 9.3901C7.74752 9.61541 5.52008 10.2068 5.23193 10.5354C5.15417 10.6246 5.02153 10.8358 5.02153 10.9578L5.00781 10.9625Z"
            fill="#555555"></path>
        <path fill-rule="evenodd" clip-rule="evenodd"
            d="M17.911 28.6112L13.2137 23.8376L14.8649 22.0915C15.5372 22.5468 17.0969 24.7341 17.8836 24.7341C18.4141 24.7341 20.5593 22.3074 21.0349 21.8192L24.0536 18.7683L25.7734 20.4909L17.9019 28.6159L17.911 28.6112ZM17.8882 22.345L16.6852 21.195C16.6487 21.1621 16.5389 21.0542 16.5023 21.0166C16.3697 20.8852 16.2965 20.8054 16.1913 20.6974L15.8848 20.3689C15.8711 20.3548 15.8528 20.336 15.8391 20.3219C14.9243 19.4583 14.6453 19.6601 13.7992 20.5331L11.8324 22.5515C10.6707 23.7437 10.721 23.9362 11.8782 25.1237L15.0981 28.4281C15.8208 29.1698 16.484 29.8457 17.1975 30.5873C18.0894 31.5167 18.7938 30.3761 19.6628 29.4796L27.0861 21.8615C28.2295 20.688 28.385 20.4862 27.2187 19.2893L25.2977 17.3179C24.415 16.412 24.0582 16.0505 23.1069 17.0409L17.8973 22.3403L17.8882 22.345Z"
            fill="#555555"></path>
        <path fill-rule="evenodd" clip-rule="evenodd"
            d="M27.8184 35.4735C27.8184 36.6235 29.6067 36.8347 29.6067 35.3796C29.6067 34.2531 27.8184 34.2719 27.8184 35.4735Z"
            fill="#555555"></path>
    </g>
    <defs>
        <clipPath id="clip0_1225_3556">
            <rect width="39" height="47" fill="white" transform="translate(0 0.5)"></rect>
        </clipPath>
    </defs>
</svg>