<svg xmlns="http://www.w3.org/2000/svg" width="47" height="55" viewBox="0 0 47 55" fill="none">
    <g clip-path="url(#clip0_1324_3290)">
        <path fill-rule="evenodd" clip-rule="evenodd"
            d="M23.9807 53.3795C19.9774 53.5898 15.4432 53.3957 11.3815 53.3957C9.30021 53.3957 7.22159 53.3957 5.14031 53.3957C4.5669 53.3957 2.47235 53.5844 2.24139 53.1206C2.05025 52.7351 2.11396 50.3461 2.35819 50.1358C2.66879 49.8662 15.4591 50.0064 17.8351 50.0064C20.6809 50.0064 18.6819 49.7691 22.0162 52.1554C22.3348 52.3818 22.6188 52.5652 22.9852 52.7863C23.3329 52.9966 23.686 53.1368 23.9807 53.3795ZM32.1704 53.3013L31.7934 53.3202C31.7934 52.9076 31.8545 52.7243 31.6872 52.4304C31.528 51.5837 30.4448 51.5406 30.2404 52.3576L30.0944 52.6434V53.3418L29.4865 53.2797C28.6397 53.2716 25.5974 52.5652 25.0266 51.9612L24.6868 51.9289C24.9018 51.3572 25.5522 50.5456 24.7744 50.098C23.9754 49.637 23.5665 50.5133 23.325 51.0256C22.2923 50.6265 19.7119 48.0084 19.2898 46.9352C21.0897 46.2288 20.2508 45.0262 19.4252 45.1071C18.9845 45.1503 18.8943 45.4172 18.4669 45.5251C17.7262 44.5894 17.0413 41.5183 16.9855 40.0245C17.782 40.0245 18.5677 40.0973 18.5624 39.2183C18.5571 38.2962 17.7395 38.3986 16.9855 38.3986C17.0307 36.8752 17.7289 33.7582 18.4669 32.8738C19.0562 33.1246 19.842 33.7609 20.2482 32.8495C20.6066 32.0487 19.7783 31.7413 19.5367 31.5742L19.3509 31.4259C19.3376 31.4151 19.3111 31.3908 19.2898 31.3719C19.919 30.0912 22.0135 28.1229 23.2267 27.3733L23.7524 28.1552C23.9966 28.4195 24.339 28.5057 24.6815 28.3493C25.5735 27.9422 24.947 27.1306 24.6895 26.5374C25.5602 25.7231 28.5998 25.0922 30.1316 25.014C30.1316 25.7582 30.0599 26.5482 30.8537 26.6291C31.7669 26.7235 31.7324 25.9038 31.7324 25.0733C32.3217 24.9573 33.1447 25.1245 33.6942 25.2728C34.695 25.4616 36.5878 25.9577 37.1824 26.5374C36.9648 27.0955 36.2772 27.8694 37.124 28.3278C37.947 28.7727 38.3505 27.8937 38.5417 27.3436C39.2929 27.5782 39.431 28.2091 40.2778 27.5243C40.6336 26.4188 39.7416 26.1006 39.0832 25.6827C38.4355 25.2701 37.7399 24.9196 36.9913 24.5853C35.4463 23.895 33.6597 23.5283 31.735 23.3638C31.4589 21.3092 32.3589 19.5269 30.6041 18.6048C29.7095 18.1356 26.1018 18.3486 24.8063 18.3486C18.7775 18.3486 12.7487 18.3486 6.7172 18.3486C1.58037 18.3486 0.322044 17.5802 0.555657 22.7814C0.592823 23.6092 0.797234 23.5579 0.922005 24.0298C1.00961 24.3615 0.712284 24.5772 0.608751 25.0544L0.571585 28.0393C0.627334 28.5678 0.860947 28.8563 1.0043 29.258C0.353901 29.8404 0.523801 31.6632 0.550348 32.6608C0.571585 33.4508 0.935278 33.9604 0.940588 34.1708C0.945897 34.3514 0.568931 34.9365 0.550348 35.6591C0.53442 36.2658 0.483981 37.9322 0.653881 38.4957C0.70432 38.6629 0.92466 39.0754 0.932624 39.1266C0.948552 39.2641 0.576895 39.9355 0.553003 40.5988C0.430887 43.8614 0.91935 43.767 0.937933 44.1688C0.951206 44.4816 0.590168 44.5031 0.553003 45.6491C0.44416 48.9925 0.855638 48.4479 0.937933 49.122C0.961825 49.3188 0.57955 49.9767 0.553003 50.5888C0.462743 52.6434 0.31939 53.9727 1.74496 54.7843L2.12193 55H32.3164C33.227 54.5955 36.2666 54.8921 40.3522 51.7752C47.0977 46.6306 48.5392 36.7512 43.4449 29.7245C43.0175 29.1367 42.6538 28.5651 41.7644 28.9965C41.2335 30.1047 41.9742 30.2206 42.5768 31.3639C42.2025 31.7117 41.2362 32.0299 41.6131 32.8684C42.0087 33.7555 42.8396 33.0545 43.421 32.8765C44.2413 34.2085 44.7616 36.5408 44.889 38.3744C44.1351 38.4121 43.2962 38.3285 43.3095 39.2048C43.3201 40.0865 44.1457 39.9841 44.8864 40.038C44.7244 42.5537 44.151 43.6026 43.4475 45.552C42.9007 45.3363 42.0697 44.673 41.6397 45.463C41.1884 46.2881 42.0777 46.7303 42.5768 46.9379C42.1016 47.9841 39.5956 50.6346 38.547 51.0256C37.7798 49.2163 36.6382 50.0387 36.7391 50.907C36.7842 51.2979 37.0497 51.4867 37.1824 51.8992C35.7144 52.4169 34.0526 53.3498 32.1598 53.2905L32.1704 53.3013ZM29.5741 9.97377H30.6307C32.1757 9.97377 32.1146 8.32631 30.6307 8.32631H29.5741C28.0981 8.32631 28.1061 9.97377 29.5741 9.97377ZM28.6025 11.6725C27.7663 12.0715 28.1698 12.9074 28.7803 13.2687C29.1865 13.506 30.1077 14.2043 30.6386 13.9832C31.005 13.8295 31.6819 13.026 30.5032 12.3816C30.0387 12.1281 29.1679 11.4055 28.6051 11.6752L28.6025 11.6725ZM1.55382 4.39504C0.983063 4.73208 0.863602 5.37111 1.83522 5.93465C2.33165 6.22046 3.14398 6.9296 3.79704 6.59525C5.25977 5.84837 2.39005 3.89891 1.55382 4.39504ZM3.0431 11.6994C2.63694 11.8828 1.4848 12.4949 1.29897 12.7618C0.837055 13.4197 1.44232 14.2933 2.28386 13.9751C2.53606 13.8808 3.86871 13.0638 3.99083 12.9047C4.4846 12.2657 3.91119 11.3058 3.0431 11.6967V11.6994ZM0.977753 8.44225C0.361865 8.80086 0.52911 9.70414 1.09191 9.90636C1.44232 10.0331 3.04841 10.0142 3.34308 9.88479C3.97225 9.61516 3.92977 8.64447 3.30061 8.4018C2.8732 8.23733 1.31224 8.24272 0.975099 8.43955L0.977753 8.44225ZM29.9537 4.3519C29.6723 4.47593 28.3981 5.23899 28.2972 5.36842C27.8326 5.95892 28.3237 6.97274 29.3033 6.61413C29.5343 6.53054 30.8032 5.76748 30.9519 5.58413C31.4908 4.91274 30.8882 3.93666 29.9537 4.3519ZM19.3827 3.36504C20.5004 3.93396 21.1083 2.85812 21.6684 2.2838C22.7595 1.16752 22.7701 1.63129 23.7285 2.60467C24.716 3.60771 25.1036 3.54299 24.0019 4.65389L18.3421 10.4025C14.3654 14.4416 14.7238 14.7921 13.4973 13.5329C12.6982 12.7133 7.60387 7.83288 7.62776 7.30439C7.77111 6.84601 9.26305 5.31449 9.68515 5.1581C10.2479 5.2336 10.5532 5.71625 10.901 6.06947C14.8246 10.0439 13.9433 10.1302 16.59 7.44191C17.8058 6.20698 18.5837 5.80523 17.9173 4.83454C16.951 4.40852 16.505 5.17698 16.0113 5.67311C15.6237 6.06138 14.7344 7.0779 14.3096 7.32327C13.9088 6.76243 12.9239 5.87263 12.3797 5.31988C11.9045 4.83724 11.055 3.73443 10.1869 3.57535C8.80644 3.32459 8.12684 4.25753 7.56405 4.82915C7.03045 5.37111 6.03229 6.13688 6.01636 7.30709C6.00309 8.52314 6.9747 9.16757 7.51892 9.72032C8.54894 10.7665 12.9504 15.4042 13.5185 15.655C15.3237 16.4585 16.5927 14.5225 18.2757 12.813C19.3482 11.7237 25.7832 5.39538 26.0991 4.64041C26.8822 2.78532 25.1514 1.90362 24.2541 0.881704C23.6754 0.2211 23.7683 0.431415 23.0781 0H21.9843C21.6392 0.218404 21.3552 0.299294 21.034 0.577017C20.7472 0.825081 20.5136 1.10011 20.2375 1.37783C19.7358 1.88205 18.9766 2.32425 19.3748 3.36773L19.3827 3.36504ZM39.2611 35.7993C40.2778 36.7377 40.1106 40.5934 39.3779 42.5078C38.7992 44.0232 37.1028 46.431 35.8418 46.8247C35.1755 47.8304 31.9049 48.4614 30.2059 48.3481C24.6258 47.9787 20.1977 41.9093 22.4861 35.8775C24.6709 30.1181 31.7271 28.2631 36.2188 31.7117C37.2674 32.5179 39.2584 34.5887 39.2611 35.7966V35.7993ZM30.1581 49.9632C37.2701 50.6346 43.0918 43.6241 41.276 36.5705C40.9574 35.3302 40.607 34.5401 40.0283 33.5425C39.2159 32.1431 38.5018 31.7387 38.162 31.1643C37.8727 31.0214 37.5461 30.6709 37.1851 30.4147C36.909 30.2206 36.5745 29.9833 36.2268 29.7784C33.9198 28.4087 30.8537 28.0042 28.2335 28.7187C20.7446 30.7572 18.2704 39.55 22.0082 45.0775C23.824 47.763 26.7203 49.8419 30.1608 49.9659L30.1581 49.9632ZM2.25732 40.1378C2.97408 39.8681 13.7999 39.8978 15.3609 40.0083L15.8493 43.3653C14.8724 43.4543 11.7186 42.8152 12.1328 44.4465C12.3186 45.1745 13.2185 45.01 14.0256 45.01C14.8379 45.01 15.6529 45.0074 16.4652 45.01C16.9059 46.4876 17.766 47.4017 18.1961 48.3778C16.3989 48.3778 2.85993 48.5854 2.40863 48.2322C2.18298 48.0407 2.23342 48.1756 2.17502 47.8062L2.1644 45.8648C2.18564 44.7081 2.91037 45.0074 3.9749 45.0074C5.51462 45.01 7.69413 45.1368 9.15686 45.0047C10.009 44.9265 10.2028 44.0555 9.717 43.5918C9.09315 42.9932 3.63776 43.7643 2.25201 43.2359C2.10069 42.64 2.09803 40.731 2.25201 40.1378H2.25732ZM15.3821 38.3393C14.0627 38.4498 2.76967 38.52 2.44049 38.2261C2.03698 37.8944 2.17237 37.8944 2.17502 36.7458C2.17767 35.7724 2.0237 35.4596 2.4166 35.1414C2.83869 34.8098 14.3123 34.9958 15.8892 34.9958C15.6847 36.1957 15.4618 37.037 15.3848 38.342L15.3821 38.3393ZM16.4121 33.3619L3.23424 33.3672C1.97326 33.3753 2.17767 33.3565 2.17767 30.8354C2.17767 30.0912 2.27855 29.9779 3.02983 29.9779C7.52157 29.9779 13.9884 29.8539 18.2439 29.9941C17.9943 30.4929 17.5855 30.9918 17.2908 31.5688C17.0015 32.1323 16.7307 32.8576 16.4148 33.3645L16.4121 33.3619ZM19.2128 28.3601C13.2902 28.3601 8.1056 28.3601 2.92364 28.3601C1.93344 28.3601 2.17767 27.775 2.17767 25.7824C2.17767 24.9412 2.42987 24.9843 3.23955 24.9843L23.8639 25.0032C23.5559 25.3375 23.1099 25.4912 22.6852 25.7636C21.7082 26.3864 21.2277 26.8232 20.4074 27.5324C20.057 27.8343 19.7942 28.3628 19.2155 28.3628L19.2128 28.3601ZM2.17502 20.84C2.17502 20.2145 2.29714 19.9772 2.92099 19.9772C11.7717 19.9772 20.6225 19.9772 29.4706 19.9772H29.3644C29.6352 19.9772 29.8104 20.023 29.9962 20.0905C30.2245 20.6189 30.1926 22.6655 30.0254 23.2506C28.045 23.5094 6.8287 23.3503 3.02452 23.3503C2.71923 23.3503 2.48296 23.291 2.28386 23.2047C2.10069 22.6708 2.17237 21.5114 2.17237 20.8373L2.17502 20.84Z"
            fill="#555555"></path>
    </g>
    <defs>
        <clipPath id="clip0_1324_3290">
            <rect width="46" height="55" fill="white" transform="translate(0.5)"></rect>
        </clipPath>
    </defs>
</svg>