<svg xmlns="http://www.w3.org/2000/svg" width="45" height="51" viewBox="0 0 45 51" fill="none">
    <path fill-rule="evenodd" clip-rule="evenodd"
        d="M10.2958 39.5275L13.3845 39.524C13.4769 39.6674 13.4221 39.503 13.47 39.7548L13.4803 44.6761C13.4495 45.6764 13.6205 49.4994 13.3571 49.7758C13.2135 49.9262 13.0151 49.9017 12.6867 49.9017H10.9867C9.84088 49.9017 10.2137 49.6673 10.2137 47.3658L10.2958 39.531V39.5275ZM5.01115 44.7496L5.00431 39.8528H8.7087V44.7496L8.71896 49.461H4.94958L5.00773 44.7496H5.01115ZM23.7178 39.8703L27.6172 39.44V40.4089C26.4029 40.3634 24.7371 40.3215 23.7144 39.8703H23.7178ZM38.9869 43.0602L36.897 44.7146C35.0602 46.0262 31.1163 47.2679 28.9135 47.8345C26.9433 48.3417 17.5507 48.7334 14.9579 48.8384L14.9716 44.83C14.9511 38.744 14.698 41.1469 16.3022 39.4575C20.5333 34.984 20.7659 35.8444 27.3948 35.7255C28.3731 35.708 28.787 35.5646 29.4848 36.1557C29.6353 38.1704 26.7928 37.985 25.1168 38.1634C24.5661 38.2228 22.7122 38.3453 22.3052 38.5027C21.5834 38.779 21.2209 39.9542 21.8194 40.5978C23.5126 42.4201 30.2202 41.9864 32.8437 41.4407C35.197 40.951 35.6006 40.8776 37.6461 39.8947C39.0792 39.2057 40.5227 38.5201 41.9217 37.8066C42.6742 37.4219 43.8371 37.3379 43.8987 38.3418C43.9637 39.3946 41.9011 40.6957 40.8134 41.6261C40.3517 42.0213 39.4931 42.7908 38.9903 43.0637L38.9869 43.0602ZM31.1061 30.8847C31.6739 30.5139 42.3048 26.1593 42.6844 26.1348C42.8349 25.9494 42.7357 25.9319 42.8623 26.1872V35.9668C41.4257 36.0927 38.2275 37.929 36.531 38.7475C35.1936 39.3911 30.7845 40.5803 29.129 40.325V39.1287C29.9328 38.5866 30.8666 38.027 31 36.7258C31.1711 35.0679 30.0902 34.6307 29.1188 34.2145V31.7136L31.1095 30.8882L31.1061 30.8847ZM20.8172 34.3929C17.4788 35.4247 17.9269 35.9319 15.8302 37.7646L14.3286 37.184C13.9181 37.0021 14.0515 37.1525 13.901 36.8273V26.0368C14.072 26.0823 14.226 26.1243 14.3594 26.1803C14.6501 26.3027 14.5783 26.2502 14.7561 26.4461C15.6181 26.4671 25.4794 31.0036 27.6001 31.6751C27.6343 32.3012 27.7129 33.6339 27.5453 34.183C25.3562 34.204 22.9482 34.0921 20.8172 34.3929ZM22.8524 28.013L34.3658 22.8889C35.8058 22.2733 35.3577 22.2663 36.8251 22.8819L41.518 24.9176L29.8268 29.7479C28.055 30.4964 28.6741 30.5104 25.2262 29.0449C24.5422 28.7546 23.4271 28.3908 22.8524 28.013ZM15.2316 24.8721C15.8302 24.4699 17.8243 23.7703 18.611 23.4416C19.4935 23.0743 26.6423 23.2387 28.1302 23.2422C28.8964 23.2457 29.666 23.4031 29.7721 22.5147C29.8679 21.7312 29.6797 20.7833 29.8268 19.9963L32.5666 21.1121C32.7274 21.1785 32.8642 21.2275 33.0215 21.294L33.4799 21.5668C32.9976 21.8956 31.8894 22.2943 31.301 22.5566C30.5075 22.9099 29.796 23.2212 29.0264 23.5605C27.4838 24.239 25.989 24.8791 24.4703 25.5647C23.7212 25.9039 22.9379 26.2292 22.1854 26.5615C20.9712 27.1001 21.0875 27.352 19.8424 26.8133C18.4297 26.2047 16.5143 25.5647 15.2316 24.8721ZM37.2493 3.68653L39.6128 3.70402L39.606 9.07299L39.6128 14.2741L37.2219 14.2111C37.2219 12.4448 37.3108 10.6225 37.1603 8.88062L37.1638 3.94886C37.198 3.75998 37.2151 3.75648 37.2493 3.69003V3.68653ZM41.1486 4.15872L43.909 4.13423L43.9056 9.07299L43.909 13.8439L41.1213 13.7739L41.1486 4.15872ZM21.7852 12.5147C21.7031 12.861 21.4979 13.2143 21.3953 13.662C21.0533 17.7438 24.6516 16.8729 25.4315 17.0163C25.4349 17.366 25.2707 17.373 25.0347 17.5304C24.5148 17.8802 23.8273 18.6077 23.5126 19.1814L6.76928 19.1953C6.47512 18.5378 5.51396 17.5864 4.8538 17.3206C4.8538 9.77953 4.55964 13.0254 6.23568 10.8883C6.95399 9.9754 6.6222 10.1153 8.05538 10.1188L23.4715 10.1118L24.5353 11.4269C24.5456 11.4095 24.5695 11.4794 24.5832 11.5074C22.0007 11.5494 22.8559 11.8362 21.7852 12.5147ZM5.1206 9.83199C4.83328 10.3252 4.45019 10.4721 3.87896 10.8463C3.24275 11.2626 3.36931 11.6683 3.37273 12.5357C3.37957 14.0397 3.38641 15.5507 3.37957 17.0547C3.36931 19.2163 4.08761 17.9572 5.26084 19.5836C6.24936 20.9512 5.34635 20.7343 8.68818 20.7343C9.45436 20.7343 23.8033 20.7973 24.2172 20.6714C24.6619 20.5385 24.6824 20.1677 24.98 19.734C24.9937 19.713 25.11 19.5591 25.1202 19.5486C25.2981 19.3353 25.1476 19.5031 25.2844 19.3702C25.5136 18.9925 25.9275 18.7861 26.4097 18.5063C27.0836 18.1146 26.9673 17.8277 26.9639 16.9918H28.2807L28.2876 19.9823L28.2807 21.6997L2.05926 21.7207L2.049 7.62144L27.494 7.58647L28.2705 7.59346V11.5074C26.5466 11.5074 27.1349 11.5424 26.7894 11.1156C26.5739 10.8533 26.1122 10.6889 25.7906 10.4161C24.5627 9.37729 24.7713 8.78268 24.1967 8.61479C23.6118 8.4434 18.4605 8.58331 17.4138 8.58331C15.1358 8.58331 12.8578 8.58331 10.5797 8.58331C4.2347 8.58331 6.50932 8.4434 5.1206 9.825V9.83199ZM35.7135 9.0625L35.6656 13.1338C32.1185 13.4171 32.4743 14.9526 30.894 15.3479C29.8063 15.6172 25.4178 15.4808 24.0325 15.4598C23.345 15.4493 23.0953 15.3269 22.9311 14.7428C22.2949 12.5042 24.9595 13.0604 26.3516 13.0604C29.9842 13.0604 29.9773 13.6305 29.7652 9.58016C29.9397 5.69421 29.8542 6.05797 27.7198 6.05797C25.9309 6.05797 24.0633 6.11044 22.2846 6.04748C22.6301 5.53332 24.2411 4.13074 24.9081 3.64106C30.0149 -0.108478 30.4357 4.43853 35.7237 5.11009L35.7169 9.0625H35.7135ZM0.489258 6.94639V22.2104C0.489258 23.6794 1.78904 23.2842 3.22223 23.2842H14.6809C13.9352 23.9487 12.3686 23.8123 12.3686 24.8966V37.7961C11.5819 37.7961 10.7849 37.7542 10.0495 37.8976C8.75659 38.1494 10.655 38.2263 6.90268 38.2263C4.96326 38.2263 3.4343 37.8381 3.4343 39.4086V50.0521C3.4343 50.7516 3.83108 51.0174 4.47755 51.0279L8.69502 51.0139C9.78615 51.0174 9.3928 51.4512 10.3711 51.4512C12.8817 51.4512 14.1302 51.8464 14.8929 50.3774C16.7229 50.3774 18.1937 50.185 19.9416 50.1675C20.5094 50.1605 20.5607 50.0696 21.0909 50.0521C21.5663 50.0381 21.9494 50.0836 22.418 50.0101L27.4051 49.7373C28.0139 49.7233 29.064 49.4505 29.5976 49.2931C31.4515 48.7509 35.8537 47.3763 37.3279 46.341C37.8684 45.9633 44.1621 41.0455 44.6615 40.4019C46.6009 37.8906 44.5452 36.7923 44.4392 36.1837C44.3981 35.9528 44.4323 35.2848 44.4323 35.0085V25.9774C44.4357 25.117 44.5212 24.5643 43.974 24.1901C43.9569 24.1796 30.2954 18.3874 29.82 18.3454V17.0547C31.1232 17.0547 32.2143 16.6945 32.8984 16.0089C33.2883 15.6172 33.5483 15.3269 34.099 15.0855C34.5197 14.9002 35.2757 14.7008 35.8161 14.6903C35.9392 16.1838 38.1044 15.8725 39.4965 15.8725C40.2046 15.8725 40.3448 15.5297 40.8716 15.4528C42.6229 15.201 45.4892 16.1349 45.4892 14.4769V3.51164C45.4892 1.92718 42.8828 2.71767 40.9674 2.54278C40.338 2.48682 40.2525 2.11256 39.4965 2.11256C37.5058 2.11256 36.1171 1.73831 35.7135 3.51164C33.2507 3.45568 30.9898 0.500122 28.25 0.500122C26.3926 0.500122 23.9265 2.22099 22.6506 3.48016C21.9494 4.17271 21.1114 4.82678 20.506 5.58578C19.9724 6.25384 19.9997 6.09295 18.8949 6.08945L1.8643 6.08595C1.05022 6.07546 0.499519 6.08945 0.499519 6.94639H0.489258Z"
        fill="#555555"></path>
    <path fill-rule="evenodd" clip-rule="evenodd"
        d="M16.2852 14.7254C15.6626 16.9709 12.3961 15.9671 13.0699 13.5781C13.6856 11.3956 16.9487 12.333 16.2852 14.7254ZM13.8121 10.9479C9.71781 12.1896 11.5238 18.5764 15.5463 17.4011C17.0137 16.9709 18.2519 15.3025 17.7696 13.3193C17.39 11.7698 15.8029 10.3428 13.8121 10.9479Z"
        fill="#555555"></path>
</svg>