<svg xmlns="http://www.w3.org/2000/svg" width="59" height="59" viewBox="0 0 59 59" fill="none">
    <g clip-path="url(#clip0_1225_3536)">
        <path fill-rule="evenodd" clip-rule="evenodd"
            d="M35.9523 54.9681H30.7657C30.3769 54.9681 29.9593 54.7637 29.9593 54.3922V43.4458C29.9593 43.1779 30.2674 42.8698 30.5353 42.8698H35.8371C36.3756 42.8698 36.6435 43.1376 36.6435 43.6762V54.0466C36.6435 54.467 36.3267 54.9681 35.9523 54.9681ZM43.2125 14.7507C43.2125 15.3382 43.512 15.7875 44.0188 15.7875C44.6956 15.7875 44.9922 15.2547 45.4012 14.9811C45.4242 15.2604 45.7669 16.182 44.9634 17.0776C43.9411 18.2123 41.2542 18.0424 41.2542 15.5571C41.2542 14.8918 41.5969 14.3101 42.0087 14.0048C42.6826 13.5066 42.9533 13.5959 44.0217 13.5959C43.8633 14.192 43.2153 14.3043 43.2153 14.7478L43.2125 14.7507ZM48.8599 8.87287C47.1637 7.7382 45.3695 4.37739 43.0973 4.37739C42.026 4.37739 29.3516 6.25219 28.3725 6.47682C27.3674 6.71009 26.898 7.14495 26.2442 7.80444C25.6308 8.42073 23.0476 10.6699 23.0476 11.4072C23.0476 11.842 23.4825 12.3287 23.9691 12.3287C24.5048 12.3287 26.7338 9.85203 27.2234 9.36245C28.7411 7.84476 29.0492 8.17594 31.955 7.75548C34.1553 7.43869 41.5364 6.22339 43.2125 6.22339C43.7971 6.22339 44.1225 6.72737 44.4508 7.05855C45.3666 7.97723 46.579 9.46325 47.5899 10.14L45.4271 12.3575C42.9994 10.6872 39.4082 12.5706 39.4082 15.6723C39.4082 19.9143 45.1823 20.9626 46.8641 17.3656C47.3998 16.2194 47.3566 14.624 46.6683 13.5987L48.8311 11.4964C49.3869 11.8766 50.3776 12.9853 50.9017 13.5123C53.1567 15.7673 53.0184 15.2576 52.4799 18.604L50.9507 29.0608C50.7865 30.2358 50.8643 30.567 50.1558 31.261C49.4042 31.9983 47.8548 33.7406 47.1291 34.2273C47.1291 33.0177 47.1291 32.5944 46.5762 31.9004C45.7093 30.8175 43.6185 30.4719 42.5443 31.4828C41.856 32.1307 41.4241 33.4267 40.9863 34.3022C39.7797 36.704 38.7055 39.2354 37.4527 41.5998C36.9545 41.2657 36.5657 41.0238 35.7248 41.0238H30.8837C29.8729 41.0238 29.3516 41.3291 28.8333 41.8561C28.1853 42.5127 28.1075 42.8871 28.1162 44.1341C28.1277 46.2882 28.2342 50.8816 28.1248 52.9004C28.0845 53.6607 27.3184 54.0927 26.8202 54.5909C22.9151 58.496 24.1103 58.3923 17.8897 52.1718L2.85103 37.1331C0.820714 35.1028 1.77395 34.809 4.06057 32.5224L12.0695 24.5135C13.3712 23.2118 20.3347 16.4239 21.3513 15.2403C21.9158 14.5837 21.4205 13.7111 20.7408 13.7111C20.0352 13.7111 16.0293 18.0194 15.295 18.7537L2.09938 31.9493C1.02519 33.0235 -0.00292969 33.8068 -0.00292969 35.6068C-0.00292969 37.2972 1.37653 38.1958 2.27217 39.0914L21.2851 58.1072C21.9158 58.7494 22.797 58.9971 23.8511 58.9971C24.9483 58.9971 25.8295 58.113 26.4142 57.5284C26.8893 57.0532 27.9952 55.6968 28.5741 55.5412C28.7325 56.1316 29.5561 56.6932 30.1868 56.6932H36.295C37.015 56.6932 37.4729 56.0625 37.9077 55.7716C38.6795 56.4426 39.3534 57.0935 40.4075 57.537C42.0375 58.2195 44.3126 58.1936 46.2047 58.1936C46.8267 58.1936 47.1262 57.7674 47.1262 57.272C47.1262 56.1547 46.0319 56.3505 44.9375 56.3505C42 56.3534 41.306 56.1547 39.1086 54.4584C38.8725 54.2741 38.3685 53.9055 38.3685 53.5858V44.0217C38.3685 43.6272 38.8034 42.9187 38.9819 42.5616L43.2845 33.7262C43.5581 33.1761 43.6358 32.6117 44.3615 32.6117C45.8706 32.6117 45.3983 34.9703 45.3983 35.9523C45.3983 37.4527 45.3925 38.9532 45.3925 40.4536C45.3925 42.1268 46.8872 41.7063 48.5114 41.715C49.3696 41.7207 49.7239 41.5911 50.5821 41.5969C51.5843 41.6026 55.0142 41.3953 55.7946 41.8042C56.9092 42.3917 56.0999 44.1312 55.8839 44.9404C55.7025 45.623 55.5585 46.2421 55.3771 46.9707L53.3064 55.0401C53.1221 55.7975 52.9493 56.3159 52.0882 56.3591C51.0284 56.4138 50.1213 56.1143 50.1213 57.5053C50.1213 58.5622 52.7593 58.3434 53.9285 57.5111C54.4497 57.1396 54.7406 56.5377 54.948 55.8811C55.5815 53.8767 56.5895 49.5108 57.1482 47.2501C57.3239 46.5445 57.5312 45.8361 57.7011 45.1535C57.8912 44.3904 58.1849 43.4371 58.1849 42.6423C58.1849 41.3003 56.7709 39.8776 55.4203 39.8776H47.1233C47.1233 35.8371 46.556 37.3923 50.608 33.3374C52.5087 31.4367 52.4137 31.6412 52.8629 28.4503C53.0904 26.8347 54.611 17.2447 54.611 15.9084C54.611 13.6419 51.2473 11.8363 50.1155 10.1458C50.9104 9.613 55.7889 4.52714 56.8861 3.43279C57.6003 2.71858 58.9884 1.66455 58.9884 0.696907C58.9884 0.158371 58.3548 0.0057373 57.9517 0.0057373C57.5715 0.0057373 53.7067 4.07788 53.3698 4.41483C52.4165 5.36806 49.7354 8.28538 48.8455 8.88151L48.8599 8.87287Z"
            fill="#555555"></path>
        <path fill-rule="evenodd" clip-rule="evenodd"
            d="M13.9445 38.0287C14.5636 38.0287 15.0014 37.3778 15.3556 37.0207C17.5126 34.8637 32.3296 20.1591 32.6176 19.7069C32.966 19.1626 32.9459 18.3246 31.6903 18.3246C31.3072 18.3246 27.0421 22.7999 26.7052 23.1369L13.2245 36.6348C12.876 37.1618 13.3023 38.0316 13.9416 38.0316L13.9445 38.0287Z"
            fill="#555555"></path>
        <path fill-rule="evenodd" clip-rule="evenodd"
            d="M17.7461 41.8301C17.7461 42.4436 18.0715 42.7517 18.7828 42.7517C19.2033 42.7517 25.3173 36.3901 25.7262 35.9811C26.8868 34.8205 27.9639 33.7435 29.1245 32.5829C29.568 32.1394 32.4939 29.3948 32.4939 29.0406C32.4939 27.9578 31.7596 27.3933 30.5068 28.6662C29.8704 29.3142 29.3059 29.8671 28.6637 30.5094L18.5237 40.6494C18.2011 40.9691 17.7461 41.2599 17.7461 41.8301Z"
            fill="#555555"></path>
        <path fill-rule="evenodd" clip-rule="evenodd"
            d="M32.3809 45.9801C32.3809 46.942 33.3687 47.1032 33.8237 46.7317C34.0857 46.5186 34.63 45.1737 33.072 45.1737C32.7466 45.1737 32.3809 45.6546 32.3809 45.9801Z"
            fill="#555555"></path>
    </g>
    <defs>
        <clipPath id="clip0_1225_3536">
            <rect width="59" height="59" fill="white"></rect>
        </clipPath>
    </defs>
</svg>